HIERARCHY
ROOT Hips
{
  OFFSET 0 0 0
  CHANNELS 6 Xposition Yposition Zposition Zrotation Xrotation Yrotation
  JOINT Spine
  {
    OFFSET 0 8.08348 0
    CHANNELS 3 Zrotation Xrotation Yrotation
    JOINT Spine1
    {
      OFFSET 0 24.6145 0
      CHANNELS 3 Zrotation Xrotation Yrotation
      JOINT Neck
      {
        OFFSET 0 24.5134 2.22849
        CHANNELS 3 Zrotation Xrotation Yrotation
        JOINT Head
        {
          OFFSET 0 13.8011 -1.97158
          CHANNELS 3 Zrotation Xrotation Yrotation
          End Site
          {
            OFFSET 0 19.7158 0
          }
        }
      }
      JOINT LeftShoulder
      {
        OFFSET 3.94856 23.7669 -0.001842
        CHANNELS 3 Zrotation Xrotation Yrotation
        JOINT LeftArm
        {
          OFFSET 8.44442 0 0
          CHANNELS 3 Zrotation Xrotation Yrotation
          JOINT LeftForeArm
          {
            OFFSET 36.6799 0 0
            CHANNELS 3 Zrotation Xrotation Yrotation
            JOINT LeftHand
            {
              OFFSET 28.1618 0 0
              CHANNELS 3 Zrotation Xrotation Yrotation
              End Site
              {
                OFFSET 14.7869 0 0
              }
            }
          }
        }
      }
      JOINT RightShoulder
      {
        OFFSET -3.93736 23.7669 -0.001842
        CHANNELS 3 Zrotation Xrotation Yrotation
        JOINT RightArm
        {
          OFFSET -8.44442 0 0
          CHANNELS 3 Zrotation Xrotation Yrotation
          JOINT RightForeArm
          {
            OFFSET -36.6799 0 0
            CHANNELS 3 Zrotation Xrotation Yrotation
            JOINT RightHand
            {
              OFFSET -28.1618 0 0
              CHANNELS 3 Zrotation Xrotation Yrotation
              End Site
              {
                OFFSET -14.7869 0 0
              }
            }
          }
        }
      }
    }
  }
  JOINT LeftUpLeg
  {
    OFFSET 9.8579 0 0
    CHANNELS 3 Zrotation Xrotation Yrotation
    JOINT LeftLeg
    {
      OFFSET 0 -43.507 0
      CHANNELS 3 Zrotation Xrotation Yrotation
      JOINT LeftFoot
      {
        OFFSET 0 -37.4368 0
        CHANNELS 3 Zrotation Xrotation Yrotation
        JOINT LeftToeBase
        {
          OFFSET 0 -6.40764 14.7869
          CHANNELS 3 Zrotation Xrotation Yrotation
          End Site
          {
            OFFSET 0 0 3.94316
          }
        }
      }
    }
  }
  JOINT RightUpLeg
  {
    OFFSET -9.8579 0 0
    CHANNELS 3 Zrotation Xrotation Yrotation
    JOINT RightLeg
    {
      OFFSET 0 -43.507 0
      CHANNELS 3 Zrotation Xrotation Yrotation
      JOINT RightFoot
      {
        OFFSET 0 -37.4368 0
        CHANNELS 3 Zrotation Xrotation Yrotation
        JOINT RightToeBase
        {
          OFFSET 0 -6.40764 14.7869
          CHANNELS 3 Zrotation Xrotation Yrotation
          End Site
          {
            OFFSET 0 0 3.94316
          }
        }
      }
    }
  }
}
MOTION
Frames:	20
Frame Time:	0.0166667
7.73392 96.1431 -318.126 0.879377 -1.06936 0.928761 0.618276 0.411308 -1.96509 0.598244 1.73696 -0.663401 -0.523611 18.9386 -0.191798 3.79264 -13.8691 0.773431 15.2605 -1.58753 0.34537 -19.0603 -4.76613 2.5911 1.95733 -2.73592 -0.37493 -1.79823 -2.68465 -2.86349 -10.6545 1.6138 -0.0791488 14.9771 -7.51796 -10.2602 -0.713874 -1.05837 3.45607 -2.42275 -1.04054 0.171941 -1.71536 8.41265 0.774775 -4.14687 -1.21938 0.357477 6.91554 -6.82465 11.6008 -8.19987e-016 -9.93923e-017 -0 -1.46607 6.05176 2.32716 4.42967 4.20299 10.2921 -6.38967 -8.54392 -26.9434 3.72721e-017 0 -1.59028e-015 
7.73083 96.1431 -318.126 0.878544 -1.05959 0.892304 0.617402 0.390075 -1.94376 0.605432 1.75462 -0.656537 -0.558168 18.9113 -0.177749 3.77271 -13.8417 0.781353 15.2775 -1.59956 0.345372 -19.1044 -4.68266 2.59078 1.98062 -2.76914 -0.403755 -1.7976 -2.71795 -2.82231 -10.6748 1.6138 -0.066211 14.9686 -7.51793 -10.2613 -0.717225 -1.06855 3.48334 -2.38526 -1.05042 0.172394 -1.66787 8.38116 0.78372 -4.14626 -1.22632 0.384129 6.91248 -6.71983 11.4442 7.20594e-016 9.93923e-017 -0 -1.46609 6.04801 2.32878 4.4332 4.17605 10.31 -6.37872 -8.52591 -26.9329 -8.69683e-017 0 1.59028e-015 
7.7243 96.1431 -318.126 0.877755 -1.05044 0.857016 0.616578 0.371094 -1.916 0.623837 1.77527 -0.647736 -0.544849 18.903 -0.196415 3.68809 -13.8416 0.739959 15.2828 -1.60392 0.345372 -19.1377 -4.71701 2.59203 1.98182 -2.81291 -0.475621 -2.02129 -2.75533 -2.80144 -10.6676 1.6138 -0.057549 14.9294 -7.51768 -10.272 -0.72781 -1.06067 3.52157 -2.29916 -1.04105 0.137449 -1.66599 8.38015 0.80481 -4.14613 -1.24164 0.385173 4.50049 -8.01571 12.0905 -2.98177e-016 -7.95139e-016 -0 -1.4514 6.0291 2.19644 4.41806 4.19236 10.4713 -6.37532 -8.52389 -26.934 4.96962e-017 -9.93923e-017 -3.18055e-015 
7.71832 96.1431 -318.131 0.876929 -1.02846 0.829338 0.626613 0.342726 -1.90872 0.621675 1.79146 -0.645378 -0.56391 18.8878 -0.182274 3.6409 -13.8443 0.74235 15.2803 -1.60112 0.345372 -19.1956 -4.61376 2.55847 2.05777 -2.98087 -0.369902 -2.09462 -2.92131 -2.89962 -10.6645 1.608 -0.051133 14.9035 -7.51828 -10.2464 -0.729465 -1.05327 3.52525 -2.28975 -1.03373 0.141587 -1.66229 8.35906 0.802938 -4.14496 -1.25147 0.435607 4.47554 -8.02356 12.0835 -9.93923e-017 -7.95139e-016 -1.59028e-015 -1.44824 6.01788 2.28538 4.43007 4.15035 10.4142 -6.37909 -8.49816 -26.9285 7.45443e-017 1.49089e-016 -1.59028e-015 
7.71078 96.1431 -318.136 0.87637 -1.02031 0.804562 0.637318 0.333204 -1.90563 0.609704 1.7964 -0.644168 -0.56955 18.8988 -0.156706 3.60334 -13.8763 0.759999 15.2758 -1.60819 0.349907 -19.2187 -4.67214 2.57768 2.06563 -3.07545 -0.387307 -1.8875 -3.0232 -2.75324 -10.6647 1.59891 -0.031402 14.8958 -7.52834 -10.2289 -0.743721 -1.07113 3.52775 -2.27639 -1.0513 0.153992 -1.71773 8.36651 0.826309 -4.14474 -1.24884 0.432204 6.20125 -7.18508 11.8604 4.47266e-016 -1.98785e-016 3.18055e-015 -1.44641 6.01482 2.29556 4.44245 4.12192 10.3833 -6.39683 -8.46826 -26.8871 1.49089e-016 -4.96962e-017 -0 
7.70381 96.1431 -318.142 0.876411 -1.01084 0.782715 0.631668 0.329667 -1.88371 0.624577 1.79865 -0.637096 -0.566263 18.9001 -0.160751 3.58382 -13.8853 0.751035 15.2675 -1.62891 0.331318 -19.2543 -4.68468 2.59492 2.07485 -3.1413 -0.412449 -1.86706 -3.08935 -2.73561 -10.6631 1.59164 -0.033105 14.9125 -7.45039 -10.2033 -0.779986 -1.10208 3.49592 -2.24031 -1.08167 0.172827 -1.70833 8.36655 0.746659 -4.13694 -1.26642 0.511436 6.8997 -6.80218 11.6261 -1.65521e-032 1.98785e-016 4.77083e-015 -1.44718 6.00118 2.28638 4.45179 4.12012 10.4597 -6.39502 -8.46941 -26.9258 -6.21202e-017 4.96962e-017 1.59028e-015 
7.69339 96.1431 -318.141 0.876634 -1.00796 0.762508 0.62436 0.324309 -1.88084 0.626707 1.7982 -0.634737 -0.553177 18.8781 -0.15692 3.56382 -13.8432 0.74902 15.2511 -1.62649 0.334318 -19.2793 -4.68282 2.61265 2.09224 -3.21566 -0.446836 -1.8682 -3.16205 -2.79293 -10.6525 1.57924 -0.024926 14.9147 -7.4597 -10.1902 -0.790648 -1.11895 3.53045 -2.20275 -1.09749 0.148507 -1.65264 8.3407 0.725608 -4.12983 -1.27221 0.562215 6.87336 -6.71079 11.4448 -5.96354e-016 3.97569e-016 -3.18055e-015 -1.44076 6.00719 2.33361 4.45227 4.08905 10.3873 -6.41767 -8.43286 -26.88 -6.21202e-017 -1.98785e-016 -1.59028e-015 
7.68327 96.1431 -318.14 0.876853 -1.00282 0.742236 0.622193 0.323944 -1.87992 0.613145 1.78691 -0.63324 -0.559096 18.8739 -0.140177 3.59724 -13.8073 0.773844 15.2512 -1.63757 0.33396 -19.3177 -4.66528 2.63985 2.09366 -3.20036 -0.488615 -2.20112 -3.13549 -2.91695 -10.6383 1.58655 -0.012544 14.9303 -7.43812 -10.164 -0.785855 -1.12803 3.55121 -2.20795 -1.10656 0.146853 -1.70209 8.35913 0.766044 -4.12989 -1.26785 0.541956 6.93073 -6.77547 11.6065 5.46658e-016 -9.93923e-017 -0 -1.43518 6.00503 2.38603 4.45043 4.0703 10.3683 -6.37486 -8.45136 -26.8884 -2.11209e-016 0 -3.18055e-015 
7.66471 96.1431 -318.138 0.876821 -0.985601 0.716791 0.620538 0.305204 -1.86719 0.614414 1.78558 -0.631438 -0.57291 18.8651 -0.121962 3.64372 -13.7738 0.803614 15.2171 -1.62931 0.323179 -19.3108 -4.70097 2.6602 2.08014 -3.14929 -0.513013 -2.24307 -3.08297 -2.91715 -10.6415 1.57154 -0.011093 14.9594 -7.42511 -10.1456 -0.780682 -1.08852 3.57203 -2.166 -1.06701 0.150566 -1.68601 8.32865 0.824053 -4.1447 -1.245 0.455949 6.16534 -7.20754 11.9192 2.98177e-016 0 3.18055e-015 -1.41232 5.98119 2.40171 4.44291 4.07464 10.3947 -6.40913 -8.44226 -26.9207 -3.72721e-017 0 4.77083e-015 
7.65641 96.1428 -318.137 0.877132 -0.982949 0.702818 0.618497 0.291768 -1.85597 0.609139 1.79726 -0.627712 -0.552247 18.8431 -0.153046 3.6424 -13.7121 0.769726 15.2149 -1.6533 0.338581 -19.3552 -4.67741 2.64426 2.08555 -3.12905 -0.503095 -2.28198 -3.06144 -2.93938 -10.6648 1.57486 -0.013632 15.0086 -7.39698 -10.1324 -0.766733 -1.08459 3.59393 -2.14145 -1.06307 0.132375 -1.67774 8.33355 0.820931 -4.14179 -1.24576 0.486218 6.91314 -6.81707 11.6662 -5.71506e-016 -9.93923e-017 1.59028e-015 -1.40982 5.98078 2.40373 4.44529 4.07105 10.3947 -6.4184 -8.43605 -26.9012 1.49089e-016 9.93923e-017 -1.59028e-015 
7.64464 96.1414 -318.135 0.877412 -0.981459 0.691032 0.400706 0.215071 -1.59288 0.883238 1.98963 -0.546144 -0.199907 18.6407 -0.336566 3.31668 -13.6509 0.501755 15.3249 -1.80096 0.248451 -19.6018 -4.71698 2.37594 2.08493 -3.1183 -0.424129 -2.28755 -3.05207 -2.93561 -10.7892 1.55907 -0.220477 15.0842 -7.32098 -10.3265 -0.725832 -1.18226 3.67938 -2.15887 -1.16172 0.144259 -1.67014 8.33735 0.833889 -4.14508 -1.24351 0.485594 6.86518 -6.84645 11.6702 8.19987e-016 0 -0 -1.41764 5.98735 2.47573 4.45756 4.04728 10.3262 -6.4132 -8.43725 -26.8919 1.2424e-017 4.96962e-017 -0 
7.63656 96.1399 -318.134 0.877637 -0.973978 0.68696 0.628017 0.240685 -1.83079 0.573778 1.85881 -0.619125 -0.56702 18.8485 -0.14451 3.69943 -13.7799 0.7949 15.2151 -1.68067 0.302034 -19.4483 -4.63234 2.67126 2.07448 -3.22397 -0.497318 -1.97262 -3.16686 -2.79927 -10.6472 1.55223 -0.01773 15.0468 -7.36475 -10.1352 -0.731445 -1.13832 3.62312 -2.20817 -1.1185 0.17032 -1.61784 8.34074 0.755188 -4.25622 -1.26727 0.461324 6.91366 -6.83531 11.7602 -2.98177e-016 -2.98177e-016 -0 -1.41387 5.97102 2.44187 4.45087 4.07253 10.3933 -6.42603 -8.45013 -26.9144 7.45443e-017 9.93923e-017 -0 
7.63523 96.1384 -318.133 0.878645 -1.01013 0.706375 0.634877 0.256289 -1.83808 0.568854 1.88326 -0.621567 -0.573147 18.8706 -0.183875 3.69959 -13.8114 0.754509 15.1983 -1.70158 0.290164 -19.4683 -4.74298 2.77425 2.01931 -3.22217 -0.713131 -1.94598 -3.16379 -2.70417 -10.6669 1.54287 -0.031781 15.0777 -7.36104 -10.1248 -0.734318 -1.12759 3.63272 -2.21232 -1.10849 0.221374 -1.62929 8.34194 0.791018 -4.1326 -1.24409 0.516632 6.86823 -6.74397 11.5074 5.96354e-016 9.93923e-017 -0 -1.41555 6.02169 2.44568 4.46225 4.05475 10.3066 -6.42125 -8.45276 -26.8627 1.49089e-016 -1.49089e-016 -0 
7.62021 96.1369 -318.134 0.875694 -0.992441 0.713154 0.633913 0.223996 -1.84312 0.574799 1.9026 -0.623505 -0.596534 18.8875 -0.168295 3.7047 -13.8553 0.772659 15.1924 -1.71559 0.280542 -19.5106 -4.73732 2.80158 1.98802 -3.35248 -0.74617 -1.85425 -3.29684 -2.64426 -10.6863 1.53071 -0.04092 15.1058 -7.40331 -10.1197 -0.737883 -1.10672 3.66836 -2.25354 -1.08763 0.230709 -1.6179 8.3155 0.81787 -4.1296 -1.22435 0.518921 6.8229 -6.78635 11.4636 -5.46658e-016 1.98785e-016 -3.18055e-015 -1.40109 5.99272 2.39673 4.46152 4.08297 10.3698 -6.43694 -8.47216 -26.883 -6.21202e-017 4.96962e-017 1.59028e-015 
7.61825 96.1354 -318.128 0.891934 -1.02814 0.738886 0.670126 0.249266 -1.89534 0.5151 1.8956 -0.639803 -0.63794 18.9317 -0.1499 3.71555 -13.8691 0.793676 15.1653 -1.70231 0.267015 -19.5071 -4.72169 2.87195 2.0084 -3.29025 -0.733987 -2.39298 -3.21911 -2.7958 -10.6659 1.54373 -0.018149 15.1118 -7.40225 -10.085 -0.742369 -1.10776 3.68931 -2.23588 -1.08844 0.233163 -1.68703 8.37095 0.86337 -4.12101 -1.19815 0.400257 6.88036 -6.85635 11.6931 -8.44835e-016 9.93923e-017 -1.59028e-015 -1.40984 6.03656 2.38484 4.45266 4.08727 10.3589 -6.43784 -8.47822 -26.8924 2.48481e-017 -1.98785e-016 1.59028e-015 
7.6112 96.1338 -318.122 0.8972 -1.0364 0.754521 0.425237 0.185072 -1.63271 0.832892 2.08823 -0.559281 -0.256513 18.7093 -0.344508 3.3224 -13.7612 0.496558 15.2824 -1.86064 0.198015 -19.7671 -4.76106 2.56386 2.02989 -3.23333 -0.644581 -2.4306 -3.16261 -2.80076 -10.7967 1.55055 -0.228172 15.1513 -7.34589 -10.3196 -0.708506 -1.12902 3.80377 -2.1685 -1.10941 0.203355 -1.68467 8.38963 0.76046 -4.12418 -1.22668 0.502841 6.90475 -6.83752 11.6782 6.21202e-016 2.98177e-016 -0 -1.4151 6.04401 2.39975 4.46903 4.09869 10.3769 -6.46322 -8.48369 -26.9271 4.96962e-017 1.49089e-016 -1.59028e-015 
7.59137 96.1323 -318.121 0.889371 -1.02866 0.756168 0.644641 0.224638 -1.88892 0.561573 1.91979 -0.638691 -0.661834 18.9345 -0.138918 3.70298 -13.8197 0.800167 15.1631 -1.74319 0.252793 -19.5947 -4.65109 2.88442 2.02561 -3.28893 -0.711405 -2.4248 -3.2177 -2.77698 -10.6957 1.54204 -0.031144 15.1404 -7.31703 -10.0941 -0.734312 -1.03506 3.74205 -2.09891 -1.01424 0.170877 -1.61079 8.35714 0.772191 -4.23381 -1.21981 0.369034 5.57523 -7.55698 12.2248 -1.10348e-032 -1.98785e-016 -3.18055e-015 -1.38021 6.02666 2.42179 4.44639 4.1167 10.2985 -6.43994 -8.51802 -26.8843 -9.93923e-017 0 1.59028e-015 
7.58251 96.1305 -318.118 0.899362 -1.03323 0.767233 0.627798 0.221906 -1.88854 0.570389 1.92211 -0.638639 -0.619008 18.954 -0.131761 3.63279 -13.8134 0.789602 15.1632 -1.74812 0.252258 -19.6147 -4.62401 2.89242 2.00535 -3.32229 -0.728646 -2.25186 -3.25685 -2.68638 -10.684 1.54533 -0.025658 15.1257 -7.28985 -10.1089 -0.731123 -1.02657 3.75965 -2.04526 -1.00515 0.142686 -1.61576 8.39144 0.765 -4.23009 -1.23131 0.42334 6.89754 -6.8639 11.7437 -4.96962e-017 2.98177e-016 -1.59028e-015 -1.3862 6.0308 2.43823 4.45845 4.12233 10.2795 -6.49396 -8.49762 -26.891 6.21202e-017 -9.93923e-017 -0 
7.58074 96.1297 -318.109 0.910799 -1.06423 0.791533 0.633845 0.24017 -1.90353 0.564676 1.92519 -0.643536 -0.637492 18.9678 -0.122306 3.63422 -13.771 0.797951 15.153 -1.77113 0.226737 -19.6317 -4.59796 2.93301 1.99691 -3.32825 -0.734788 -2.22154 -3.26292 -2.71516 -10.7102 1.53297 -0.039802 15.1459 -7.27398 -10.0932 -0.732049 -1.03454 3.76423 -2.14824 -1.01351 0.159541 -1.63974 8.41159 0.762558 -4.21522 -1.21072 0.397233 6.1802 -7.24824 11.9992 3.97569e-016 1.98785e-016 -0 -1.39677 6.1305 2.9619 4.49523 3.95253 9.75461 -6.4632 -8.46686 -26.9137 4.96962e-017 1.98785e-016 -1.59028e-015 
7.56537 96.1288 -318.108 0.906774 -1.05693 0.798482 0.63123 0.219982 -1.89668 0.563334 1.93891 -0.641535 -0.617321 19.0078 -0.140535 3.64657 -13.7945 0.783251 15.1481 -1.78797 0.22544 -19.6306 -4.58722 2.92273 1.98884 -3.3447 -0.718464 -2.14553 -3.28183 -2.69752 -10.7075 1.51249 -0.036732 15.1387 -7.29707 -10.1215 -0.737034 -1.04403 3.78893 -2.23851 -1.02292 0.165117 -1.61601 8.40148 0.677201 -4.22837 -1.20451 0.435409 6.1951 -7.26729 12.0297 -2.98177e-016 3.97569e-016 1.59028e-015 -1.37324 6.05371 2.32675 4.4436 4.1563 10.3731 -6.51246 -8.51995 -26.9168 3.72721e-017 4.96962e-017 -0 
